{"title":"NRL 2016 - State Of Origin - Game 2","uid":15060476,"size":2132673574,"categoryP":"video","categoryS":"tv_shows","magnet":"?xt=urn:btih:8c27dee38f02cd36a866390321e0439eccb46022&amp;dn=NRL+2016+-+State+Of+Origin+-+Game+2&amp;tr=udp%3A%2F%2Ftracker.leechers-paradise.org%3A6969&amp;tr=udp%3A%2F%2Fzer0day.ch%3A1337&amp;tr=udp%3A%2F%2Fopen.demonii.com%3A1337&amp;tr=udp%3A%2F%2Ftracker.coppersurfer.tk%3A6969&amp;tr=udp%3A%2F%2Fexodus.desync.com%3A6969","seeders":3,"leechers":0,"uploader":"Bullrout","files":1,"time":1466760195,"description":"NRL 2016 - State Of Origin - Game 2\r\n\r\nComplete name                            : NRL 2016 - State Of Origin - Game 2.mkv\r\nFormat                                   : Matroska\r\nFormat version                           : Version 4 / Version 2\r\nFile size                                : 1.99 GiB\r\nDuration                                 : 1h 24mn\r\nOverall bit rate mode                    : Variable\r\nOverall bit rate                         : 3 355 Kbps\r\nEncoded date                             : UTC 2016-06-24 01:24:45\r\nWriting application                      : mkvmerge v9.2.0 ('Photograph') 64bit\r\nWriting library                          : libebml v1.3.3 + libmatroska v1.4.4\r\n\r\nVideo\r\nID                                       : 2\r\nFormat                                   : AVC\r\nFormat/Info                              : Advanced Video Codec\r\nFormat profile                           :   \r\nFormat settings, CABAC                   : Yes\r\nFormat settings, ReFrames                : 3 frames\r\nCodec ID                                 : V_MPEG4/ISO/AVC\r\nDuration                                 : 1h 24mn\r\nBit rate mode                            : Variable\r\nBit rate                                 : 2 969 Kbps\r\nMaximum bit rate                         : 3 000 Kbps\r\nWidth                                    : 1 280 pixels\r\nHeight                                   : 720 pixels\r\nDisplay aspect ratio                     : 16:9\r\nFrame rate mode                          : Constant\r\nFrame rate                               : 25.000 fps\r\nStandard                                 : PAL\r\nColor space                              : YUV\r\nChroma subsampling                       : 4:2:0\r\nBit depth                                : 8 bits\r\nScan type                                : Progressive\r\nBits/(Pixel*Frame)                       : 0.129\r\nStream size                              : 1.76 GiB (89%)\r\nWriting library                          : x264 core 112\r\nDefault                                  : Yes\r\nForced                                   : No\r\nColor range                              : Limited\r\nColor primaries                          : BT.709\r\nTransfer characteristics                 : BT.709\r\nMatrix coefficients                      : BT.709\r\n\r\nAudio\r\nID                                       : 1\r\nFormat                                   : AC-3\r\nFormat/Info                              : Audio Coding 3\r\nMode extension                           : CM (complete main)\r\nFormat settings, Endianness              : Big\r\nCodec ID                                 : A_AC3\r\nDuration                                 : 1h 24mn\r\nBit rate mode                            : Constant\r\nBit rate                                 : 384 Kbps\r\nChannel(s)                               : 6 channels\r\nChannel positions                        : Front: L C R, Side: L R, LFE\r\nSampling rate                            : 48.0 KHz\r\nFrame rate                               : 31.250 fps (1536 spf)\r\nCompression mode                         : Lossy\r\nStream size                              : 233 MiB (11%)\r\nDefault                                  : Yes\r\nForced                                   : No","torrent":{"xt":"urn:btih:8c27dee38f02cd36a866390321e0439eccb46022","amp;dn":"NRL+2016+-+State+Of+Origin+-+Game+2","amp;tr":["udp%3A%2F%2Ftracker.leechers-paradise.org%3A6969","udp%3A%2F%2Fzer0day.ch%3A1337","udp%3A%2F%2Fopen.demonii.com%3A1337","udp%3A%2F%2Ftracker.coppersurfer.tk%3A6969","udp%3A%2F%2Fexodus.desync.com%3A6969"],"infoHash":"8c27dee38f02cd36a866390321e0439eccb46022","infoHashBuffer":{"type":"Buffer","data":[140,39,222,227,143,2,205,54,168,102,57,3,33,224,67,158,204,180,96,34]},"announce":[],"urlList":[]}}